HIERARCHY
ROOT Hips
{
	OFFSET 0.000000 0.000000 0.000000
	CHANNELS 6 Xposition Yposition Zposition Xrotation Yrotation Zrotation
	JOINT LeftUpLeg_virtual
	{
		OFFSET 0.000000 0.000000 0.000000
		CHANNELS 3 Xrotation Yrotation Zrotation
		JOINT LeftUpLeg
		{
			OFFSET 11.394100 -6.187798 -0.413800
			CHANNELS 3 Xrotation Yrotation Zrotation
			JOINT LeftLeg
			{
				OFFSET 0.430247 -32.302673 3.732800
				CHANNELS 3 Xrotation Yrotation Zrotation
				JOINT LeftFoot
				{
					OFFSET -0.430247 -48.264931 -6.423300
					CHANNELS 3 Xrotation Yrotation Zrotation
					JOINT LeftToeBase
					{
						OFFSET 4.230900 -16.068199 23.438400
						CHANNELS 3 Xrotation Yrotation Zrotation
						JOINT LeftToe_End
						{
							OFFSET 4.510700 0.695400 19.974600
							CHANNELS 3 Xrotation Yrotation Zrotation
							End Site
							{
								OFFSET 0 0 0
							}
						}
					}
				}
			}
		}
	}
	JOINT RightUpLeg_virtual
	{
		OFFSET 0.000000 0.000000 0.000000
		CHANNELS 3 Xrotation Yrotation Zrotation
		JOINT RightUpLeg
		{
			OFFSET -11.333700 -6.187798 -0.413800
			CHANNELS 3 Xrotation Yrotation Zrotation
			JOINT RightLeg
			{
				OFFSET -0.430392 -32.302628 3.733000
				CHANNELS 3 Xrotation Yrotation Zrotation
				JOINT RightFoot
				{
					OFFSET 0.430392 -48.264973 -6.423500
					CHANNELS 3 Xrotation Yrotation Zrotation
					JOINT RightToeBase
					{
						OFFSET -4.230900 -16.068199 23.438400
						CHANNELS 3 Xrotation Yrotation Zrotation
						JOINT RightToe_End
						{
							OFFSET -4.510700 0.695400 19.974600
							CHANNELS 3 Xrotation Yrotation Zrotation
							End Site
							{
								OFFSET 0 0 0
							}
						}
					}
				}
			}
		}
	}
	JOINT Spine_virtual
	{
		OFFSET 0.000000 0.000000 0.000000
		CHANNELS 3 Xrotation Yrotation Zrotation
		JOINT Spine
		{
			OFFSET -0.002400 12.777504 0.315300
			CHANNELS 3 Xrotation Yrotation Zrotation
			JOINT Spine1
			{
				OFFSET -0.002067 5.816869 0.032633
				CHANNELS 3 Xrotation Yrotation Zrotation
				JOINT Spine1_split
				{
					OFFSET -0.002067 5.816869 0.032633
					CHANNELS 3 Xrotation Yrotation Zrotation
					JOINT Spine2
					{
						OFFSET -0.002067 5.816869 0.032633
						CHANNELS 3 Xrotation Yrotation Zrotation
						JOINT Neck_virtual
						{
							OFFSET 0.000000 0.000000 0.000000
							CHANNELS 3 Xrotation Yrotation Zrotation
							JOINT Neck
							{
								OFFSET -0.003700 21.199493 -0.826900
								CHANNELS 3 Xrotation Yrotation Zrotation
								JOINT Head
								{
									OFFSET 0.000000 20.442200 4.834800
									CHANNELS 3 Xrotation Yrotation Zrotation
									JOINT HeadTop_End
									{
										OFFSET 0.000000 34.668396 4.968400
										CHANNELS 3 Xrotation Yrotation Zrotation
										End Site
										{
											OFFSET 0 0 0
										}
									}
								}
							}
						}
						JOINT LeftShoulder_virtual
						{
							OFFSET 0.000000 0.000000 0.000000
							CHANNELS 3 Xrotation Yrotation Zrotation
							JOINT LeftShoulder
							{
								OFFSET 3.288150 8.794197 -1.372250
								CHANNELS 3 Xrotation Yrotation Zrotation
								JOINT LeftShoulder_split
								{
									OFFSET 3.288150 8.794197 -1.372250
									CHANNELS 3 Xrotation Yrotation Zrotation
									JOINT LeftArm
									{
										OFFSET 11.953299 -2.279007 -0.146200
										CHANNELS 3 Xrotation Yrotation Zrotation
										JOINT LeftForeArm
										{
											OFFSET 18.448900 0.000000 0.000000
											CHANNELS 3 Xrotation Yrotation Zrotation
											JOINT LeftHand
											{
												OFFSET 29.527798 0.000000 0.000000
												CHANNELS 3 Xrotation Yrotation Zrotation
												End Site
												{
													OFFSET 0 0 0
												}
											}
										}
									}
								}
							}
						}
						JOINT RightShoulder_virtual
						{
							OFFSET 0.000000 0.000000 0.000000
							CHANNELS 3 Xrotation Yrotation Zrotation
							JOINT RightShoulder
							{
								OFFSET -3.249400 8.794197 -1.372250
								CHANNELS 3 Xrotation Yrotation Zrotation
								JOINT RightShoulder_split
								{
									OFFSET -3.249400 8.794197 -1.372250
									CHANNELS 3 Xrotation Yrotation Zrotation
									JOINT RightArm
									{
										OFFSET -11.953299 -2.279007 -0.146200
										CHANNELS 3 Xrotation Yrotation Zrotation
										JOINT RightForeArm
										{
											OFFSET -18.448900 0.000000 0.000000
											CHANNELS 3 Xrotation Yrotation Zrotation
											JOINT RightHand
											{
												OFFSET -29.527802 0.000000 0.000000
												CHANNELS 3 Xrotation Yrotation Zrotation
												End Site
												{
													OFFSET 0 0 0
												}
											}
										}
									}
								}
							}
						}
					}
				}
			}
		}
	}
}
MOTION
Frames: 5
Frame Time: 0.03333333
5.604512 71.115448 125.928192 0.000000 0.000000 0.000000 6.019798 -25.463746 -1.582802 41.350348 24.738233 3.753161 2.973361 11.558523 3.598823 -14.908770 -2.771133 -40.163541 -24.027803 0.363450 -7.763132 0.000000 0.000000 0.000000 7.761451 -22.644498 -2.621338 -97.507364 -3.398830 -9.500729 43.798025 -0.763845 -2.715876 36.668984 6.242099 4.522400 -4.046418 4.441947 3.385511 0.000000 0.000000 0.000000 6.639824 -22.376996 -1.079056 4.456491 -5.877793 2.430996 3.287386 -6.134465 0.552731 1.419202 -5.416095 0.437515 0.000000 0.000000 0.000000 4.223936 -5.879801 0.533099 11.306974 1.121076 11.610638 -0.262100 6.105460 -15.401114 0.000000 0.000000 0.000000 4.790223 -6.718395 -0.106545 -2.277561 -13.480819 -17.757218 -7.020390 5.880211 -0.068028 -39.919508 -13.239594 -23.014712 -15.063470 -67.845738 14.754914 0.000000 0.000000 0.000000 4.195764 -5.861331 1.367380 -0.448077 0.048826 -0.334338 -6.828898 -1.240489 -3.705532 -30.382997 44.052965 10.511752 47.177035 29.329922 -18.668577 0.000000 0.000000 0.000000 
5.575180 70.378830 129.743683 0.000000 0.000000 0.000000 8.439055 -29.041684 -2.040790 45.695984 25.906108 1.058931 -4.392106 13.266247 5.751824 -12.959316 -4.490358 -41.731117 -29.331537 0.043695 -4.126207 0.000000 0.000000 0.000000 10.561028 -26.198908 -2.675026 -96.083891 -3.910411 -5.184794 41.901841 -1.973178 -3.258389 33.465506 6.486654 3.188274 -3.721206 3.477151 3.859378 0.000000 0.000000 0.000000 9.021707 -27.060556 -1.762278 4.473698 -9.180235 2.953301 3.590663 -9.687821 1.605467 1.203282 -3.565839 0.226346 0.000000 0.000000 0.000000 4.012660 -9.409344 1.902946 8.580704 4.381384 13.752220 2.808267 13.363001 -19.830425 0.000000 0.000000 0.000000 4.820894 -10.273849 1.264593 -4.289025 -18.961058 -18.938057 -7.185699 6.794237 0.381692 -37.801829 -21.294016 -27.331531 -12.127188 -52.508766 13.642397 0.000000 0.000000 0.000000 4.285111 -9.382322 2.729008 -0.423401 -2.921819 6.676340 -5.935562 -1.853352 -3.827837 -20.147492 33.504096 1.845917 37.784466 22.665807 -7.279645 0.000000 0.000000 0.000000 
5.512761 70.125099 134.285172 0.000000 0.000000 0.000000 11.038360 -32.364442 -2.230593 47.112114 28.550578 0.493054 -5.752709 14.937376 6.157770 -8.106857 -7.664011 -41.000492 -32.206429 -1.055045 0.663338 0.000000 0.000000 0.000000 13.371965 -28.982060 -2.501217 -95.101928 -3.127150 -1.260934 41.980033 -2.492532 -3.702622 29.856878 7.250223 2.284225 -2.990665 2.974249 4.119753 0.000000 0.000000 0.000000 11.161791 -30.939254 -2.314908 4.360847 -11.505152 3.145631 4.142919 -12.296880 2.605166 0.644187 -2.052996 0.252699 0.000000 0.000000 0.000000 4.348466 -11.988490 3.208246 5.409892 7.042339 15.621332 5.400387 19.038754 -23.098665 0.000000 0.000000 0.000000 5.080417 -12.802792 2.608373 -5.613530 -23.017034 -18.411933 -6.782158 6.823019 0.613886 -37.205574 -29.865719 -32.783040 -10.278097 -37.717636 11.047452 0.000000 0.000000 0.000000 4.500202 -12.012553 3.846254 -0.129479 -5.492283 11.177780 -4.632471 -2.037242 -2.885425 -17.065690 24.780690 -0.135122 31.354895 23.019100 -1.728615 0.000000 0.000000 0.000000 
5.352217 70.435829 139.473999 0.000000 0.000000 0.000000 13.507164 -36.117743 -1.873680 44.660380 32.421972 2.577095 0.335695 16.732881 4.503646 0.847714 -12.114193 -37.257405 -29.972557 -1.932779 4.923244 0.000000 0.000000 0.000000 15.975065 -31.817477 -1.950845 -94.025456 -1.661515 2.093493 43.216123 -2.434140 -3.944183 26.405919 8.537414 1.858236 -2.695036 2.907984 3.950798 0.000000 0.000000 0.000000 12.819484 -34.710359 -2.717430 3.976276 -12.670284 3.031158 4.738113 -13.832361 3.341664 0.149542 -1.200155 0.335947 0.000000 0.000000 0.000000 5.022181 -13.476818 4.162462 2.134334 9.081819 17.182676 6.876056 23.271008 -24.984195 0.000000 0.000000 0.000000 5.370564 -14.214315 3.650046 -6.166598 -25.592500 -16.406666 -5.755776 6.269419 0.314437 -39.520281 -37.422910 -39.833738 -8.986195 -26.445750 7.830167 0.000000 0.000000 0.000000 4.676606 -13.598928 4.521690 0.188167 -7.060068 13.210630 -2.902657 -1.761744 -1.331019 -17.559086 18.464013 0.978807 25.350023 27.960488 0.919869 0.000000 0.000000 0.000000 
5.125371 71.482018 144.871933 0.000000 0.000000 0.000000 15.417653 -40.440635 -0.915495 37.757409 35.831999 7.525775 12.965784 18.805304 1.153365 12.212256 -14.868393 -29.322415 -23.053856 -1.420484 6.575467 0.000000 0.000000 0.000000 17.931395 -35.157811 -0.997581 -91.893857 -0.003375 4.674598 44.384393 -2.123437 -3.916485 23.355192 9.810352 1.773403 -2.872026 3.155988 3.453796 0.000000 0.000000 0.000000 14.028895 -38.752188 -2.805027 3.414471 -12.700381 2.653373 5.197926 -14.347016 3.675338 0.145620 -0.823863 0.999473 0.000000 0.000000 0.000000 5.766966 -13.958045 4.617001 -0.911063 10.579937 18.356622 7.083891 26.240649 -25.419823 0.000000 0.000000 0.000000 5.476238 -14.615804 4.154095 -6.060114 -26.696238 -13.607530 -4.175614 5.263317 -0.604586 -44.385151 -42.336702 -47.567459 -8.138448 -19.234917 4.530311 0.000000 0.000000 0.000000 4.717168 -14.166534 4.706250 0.416288 -7.141478 13.164619 -1.096672 -1.908870 0.978944 -19.513741 14.232748 3.423497 18.705603 32.479366 2.572462 0.000000 0.000000 0.000000 
